<svg id="Capa_1" data-name="Capa 1" xmlns="http://www.w3.org/2000/svg" viewBox="0 0 506.17 512"><defs><style>.cls-1{fill:#00e;}.cls-2{fill:#111;}.cls-3{fill:gray;}.cls-4{fill:#676767;}.cls-5{fill:#535353;}.cls-6{fill:#414141;}.cls-7{fill:#fefefe;}</style></defs><title>action</title><path class="cls-1" d="M545,165.89c5.53,2.83,7.21,7.32,7.12,13.48q-1.83,115.25-69.07,208.79a16,16,0,0,0-3.23,9.06q-4.6,92.68-69.72,158.89c-17,17.23-34.13,34.22-51.23,51.29-6.55,6.53-11.3,6.47-17.94-.17q-34.67-34.62-69.23-69.34c-2.72-2.75-4.19-3.31-7.45-.5C231.59,565.56,193.7,582,150.87,587c-3.14.37-6.26.9-9.4,1.26-7.39.84-12.42-3.76-11.76-11.12,4.15-46,19.78-87.34,50.17-122.55,3.29-3.8,3-5.6-.41-9-22.9-22.57-45.57-45.39-68.31-68.14-7.32-7.32-7.36-11.67.08-19,21.28-20.89,41.27-43.14,63.81-62.69,41.7-36.16,90.53-55,145.57-57.7a16,16,0,0,0,9.11-3.12c52.94-38.15,111.82-60.76,176.82-67.36,3.81-.39,7.85.21,11.45-1.74h4c.62.68,1.45.47,2.22.52h3.57c.77,0,1.59.15,2.21-.52h3a7.62,7.62,0,0,0,6,0Z" transform="translate(-45.95 -165.89)"/><path class="cls-1" d="M133,677.89q-13.47-8-2.32-19.15,21.16-21.21,42.38-42.37c5.49-5.46,13.1-5,16.56,1,2.33,4,2.17,8.26-1.08,11.55-15.42,15.64-31,31.09-46.55,46.64-.91.92-2.53.86-3,2.31Z" transform="translate(-45.95 -165.89)"/><path class="cls-2" d="M539,165.89a4.52,4.52,0,0,1-6,0Z" transform="translate(-45.95 -165.89)"/><path class="cls-3" d="M524,166.71c-.83.13-1.7.39-2-.82h2c.34.2.44.39.32.56S524.08,166.71,524,166.71Z" transform="translate(-45.95 -165.89)"/><path class="cls-4" d="M524,166.71c0-.27,0-.55,0-.82h2c.33.2.44.39.32.58s-.24.26-.36.26Z" transform="translate(-45.95 -165.89)"/><path class="cls-5" d="M526,166.73c0-.28,0-.56,0-.84h2c.33.21.44.4.32.59s-.24.27-.36.27Z" transform="translate(-45.95 -165.89)"/><path class="cls-6" d="M528,166.75a8.12,8.12,0,0,0,0-.86h2C529.59,166.81,528.82,166.88,528,166.75Z" transform="translate(-45.95 -165.89)"/><path class="cls-1" d="M287.88,585.46a11.25,11.25,0,0,1-3.42,7.66q-33.75,33.74-67.53,67.47c-4.56,4.54-10.63,4.44-14.64.22-3.83-4-3.74-9.92.62-14.29q33.66-33.84,67.47-67.54c3.28-3.28,7.14-4.19,11.41-2.42C285.72,578.19,287.48,581.46,287.88,585.46Z" transform="translate(-45.95 -165.89)"/><path class="cls-1" d="M103.48,496.65c4.53,0,7.41,1.74,9.28,5a9.52,9.52,0,0,1-.15,10,15.76,15.76,0,0,1-2.58,3q-22.92,23-45.85,45.9c-2.59,2.59-5.5,4.45-9.26,3.92a9.7,9.7,0,0,1-8.2-6.42,9,9,0,0,1,2-10.16q24.23-24.48,48.67-48.73A8.11,8.11,0,0,1,103.48,496.65Z" transform="translate(-45.95 -165.89)"/><path class="cls-1" d="M143.19,477.27a9.74,9.74,0,0,1-9.64,9.9,10.05,10.05,0,0,1-10.29-9.88,10.22,10.22,0,0,1,10.27-10A10,10,0,0,1,143.19,477.27Z" transform="translate(-45.95 -165.89)"/><path class="cls-7" d="M457.26,421.19a173.39,173.39,0,0,1-7.74,33.41c-10.88,33.71-29.12,62.93-54.13,88C381.26,556.71,367.05,570.78,353,585c-2.44,2.48-3.69,2.58-6.14,0-8.07-8.42-16.37-16.62-24.73-24.75-2-2-2-3.08.05-5,7.79-7.53,15.39-15.24,23-22.93,5.09-5.14,5.55-11.17,1.28-15.41s-10.15-3.89-15.38,1.3c-7.69,7.62-15.39,15.24-22.93,23-1.95,2-3,2.09-5.06,0Q240,477.91,176.63,414.71c-1.73-1.73-2.1-2.77-.16-4.7,45-44.74,89.16-90.45,135.22-134.11,52.24-49.52,115.24-77.81,186.66-87.2,9.6-1.27,19.25-1.67,28.85-2.64,4.18-.43,4.89,1,4.69,4.8-3.86,74.05-28.42,140.26-74.67,198.32-18.33,23-40.23,42.63-60.69,63.62-1.28,1.31-2.63,2.56-3.87,3.9-4.45,4.78-4.58,10.59-.36,14.67,4.06,3.94,10.09,3.69,14.7-.81,6.08-5.94,12-12.06,18.05-18C435.62,442.19,446.25,431.9,457.26,421.19Z" transform="translate(-45.95 -165.89)"/><path class="cls-7" d="M296.46,260.83c-4.1,4.46-7.87,8.87-11.95,13q-60.4,60.51-120.84,121c-2.55,2.56-4,3.27-6.84.22-8-8.48-16.36-16.63-24.71-24.78-1.71-1.67-1.83-2.61-.07-4.31,19.91-19.2,38.24-40,59.44-57.88,29.39-24.73,63.34-40,101.09-46.89A34.53,34.53,0,0,1,296.46,260.83Z" transform="translate(-45.95 -165.89)"/><path class="cls-7" d="M153.77,566.47c-2.07.64-2.56-.09-2.21-2.5a188.45,188.45,0,0,1,43.95-97.21c1.93-2.28,3-2.06,4.93-.08q25.32,25.54,50.86,50.87c1.94,1.92,2.3,2.88-.07,4.9C223.06,546.49,190.64,561.06,153.77,566.47Z" transform="translate(-45.95 -165.89)"/><path class="cls-1" d="M463.27,304.66c-.06,27.72-22.72,50.27-50.21,50s-49.79-22.82-49.72-50.11a50,50,0,0,1,99.93.13Z" transform="translate(-45.95 -165.89)"/><path class="cls-1" d="M312.86,455a50,50,0,1,1,50-49.66A49.8,49.8,0,0,1,312.86,455Z" transform="translate(-45.95 -165.89)"/><path class="cls-1" d="M358.93,494.6a9.72,9.72,0,0,1,9.69-9.85,10,10,0,0,1,10.24,9.93,10.34,10.34,0,0,1-10.32,10A10.09,10.09,0,0,1,358.93,494.6Z" transform="translate(-45.95 -165.89)"/><path class="cls-7" d="M413.6,274.71a29.63,29.63,0,0,1,29.67,29.85,30,30,0,0,1-30.11,30.08,30.28,30.28,0,0,1-29.82-30A29.92,29.92,0,0,1,413.6,274.71Z" transform="translate(-45.95 -165.89)"/><path class="cls-7" d="M313,435a30,30,0,0,1-.28-59.95,30.28,30.28,0,0,1,30.18,30.16A30,30,0,0,1,313,435Z" transform="translate(-45.95 -165.89)"/></svg>